<?xml version="1.0" encoding="UTF-8"?><!DOCTYPE svg PUBLIC "-//W3C//DTD SVG 1.1//EN" "http://www.w3.org/Graphics/SVG/1.1/DTD/svg11.dtd"><svg xmlns="http://www.w3.org/2000/svg" xmlns:xlink="http://www.w3.org/1999/xlink"><defs><clipPath id="clip0"><path d="M0 0h16v16H0z"/></clipPath></defs><symbol id="add" viewBox="0 0 24 24"><path d="M0 0h24v24H0z" fill="none"/><path d="M19 13h-6v6h-2v-6H5v-2h6V5h2v6h6v2z"/></symbol><symbol id="assignment" viewBox="0 0 24 24"><path d="M0 0h24v24H0z" fill="none"/><path d="M19 3h-4.18C14.4 1.84 13.3 1 12 1c-1.3 0-2.4.84-2.82 2H5c-1.1 0-2 .9-2 2v14c0 1.1.9 2 2 2h14c1.1 0 2-.9 2-2V5c0-1.1-.9-2-2-2zm-7 0c.55 0 1 .45 1 1s-.45 1-1 1-1-.45-1-1 .45-1 1-1zm2 14H7v-2h7v2zm3-4H7v-2h10v2zm0-4H7V7h10v2z"/></symbol><symbol id="bookmark" viewBox="0 0 16 16"><path d="M12.5 1h-9l-.5.5v13l.872.335L8 10.247l4.128 4.588L13 14.5v-13l-.5-.5zM12 13.2L8.372 9.165h-.744L4 13.2V2h8v11.2z"/></symbol><symbol id="chevron_down" viewBox="0 0 16 16"><path fill-rule="evenodd" clip-rule="evenodd" d="M7.976 10.072l4.357-4.357.62.618L8.284 11h-.618L3 6.333l.619-.618 4.357 4.357z"/></symbol><symbol id="chevron_right" viewBox="0 0 16 16"><path fill-rule="evenodd" clip-rule="evenodd" d="M10.072 8.024L5.715 3.667l.618-.62L11 7.716v.618L6.333 13l-.618-.619 4.357-4.357z"/></symbol><symbol id="clear" viewBox="0 0 24 24"><path d="M0 0h24v24H0z" fill="none"/><path d="M19 6.41L17.59 5 12 10.59 6.41 5 5 6.41 10.59 12 5 17.59 6.41 19 12 13.41 17.59 19 19 17.59 13.41 12z"/></symbol><symbol id="code" viewBox="0 0 24 24"><path d="M0 0h24v24H0V0z" fill="none"/><path d="M9.4 16.6L4.8 12l4.6-4.6L8 6l-6 6 6 6 1.4-1.4zm5.2 0l4.6-4.6-4.6-4.6L16 6l6 6-6 6-1.4-1.4z"/></symbol><symbol id="create_new_folder" viewBox="0 0 24 24"><path d="M0 0h24v24H0V0z" fill="none"/><path d="M20 6h-8l-2-2H4c-1.11 0-1.99.89-1.99 2L2 18c0 1.11.89 2 2 2h16c1.11 0 2-.89 2-2V8c0-1.11-.89-2-2-2zm0 12H4V6h5.17l2 2H20v10zm-8-4h2v2h2v-2h2v-2h-2v-2h-2v2h-2z"/></symbol><symbol id="create_new_folder_filled" viewBox="0 0 24 24"><path d="M0 0h24v24H0V0z" fill="none"/><path d="M20 6h-8l-2-2H4c-1.11 0-1.99.89-1.99 2L2 18c0 1.11.89 2 2 2h16c1.11 0 2-.89 2-2V8c0-1.11-.89-2-2-2zm-1 8h-3v3h-2v-3h-3v-2h3V9h2v3h3v2z"/></symbol><symbol id="delete" viewBox="0 0 24 24"><path d="M0 0h24v24H0z" fill="none"/><path d="M6 19c0 1.1.9 2 2 2h8c1.1 0 2-.9 2-2V7H6v12zM19 4h-3.5l-1-1h-5l-1 1H5v2h14V4z"/></symbol><symbol id="file-symlink-directory" viewBox="0 0 16 16"><path fill-rule="evenodd" clip-rule="evenodd" d="M7.71 3h6.79l.51.5v10l-.5.5h-13l-.5-.5v-11l.5-.5h5l.35.15.85.85zm6.28 10v-1.51l.01-4v-1.5H7.7l-.86.86-.35.15H2v6h11.99zm-6.5-8h6.5l.01-.99H7.5l-.36-.15-.85-.85H2v3h4.28l.86-.86.35-.15zm2.29 4.07L8.42 7.7l.74-.69 2.22 2.22v.71l-2.29 2.21-.7-.72 1.4-1.35H8.42a2 2 0 00-1.35.61A1.8 1.8 0 006.54 12h-1a2.76 2.76 0 01.81-2 3 3 0 012-.93h1.43z"/></symbol><symbol id="file" viewBox="0 0 16 16"><path fill-rule="evenodd" clip-rule="evenodd" d="M13.71 4.29l-3-3L10 1H4L3 2v12l1 1h9l1-1V5l-.29-.71zM13 14H4V2h5v4h4v8zm-3-9V2l3 3h-3z"/></symbol><symbol id="files" viewBox="0 0 24 24"><path d="M17.5 0h-9L7 1.5V6H2.5L1 7.5v15.07L2.5 24h12.07L16 22.57V18h4.7l1.3-1.43V4.5L17.5 0zm0 2.12l2.38 2.38H17.5V2.12zm-3 20.38h-12v-15H7v9.07L8.5 18h6v4.5zm6-6h-12v-15H16V6h4.5v10.5z"/></symbol><symbol id="file_copy" viewBox="0 0 24 24"><path d="M0 0h24v24H0V0z" fill="none"/><path d="M16 1H4c-1.1 0-2 .9-2 2v14h2V3h12V1zm-1 4H8c-1.1 0-1.99.9-1.99 2L6 21c0 1.1.89 2 1.99 2H19c1.1 0 2-.9 2-2V11l-6-6zM8 21V7h6v5h5v9H8z"/></symbol><symbol id="folder-opened" viewBox="0 0 16 16"><path d="M1.5 14h11l.48-.37 2.63-7-.48-.63H14V3.5l-.5-.5H7.71l-.86-.85L6.5 2h-5l-.5.5v11l.5.5zM2 3h4.29l.86.85.35.15H13v2H8.5l-.35.15-.86.85H3.5l-.47.34-1 3.08L2 3zm10.13 10H2.19l1.67-5H7.5l.35-.15.86-.85h5.79l-2.37 6z"/></symbol><symbol id="folder" viewBox="0 0 24 24"><path d="M0 0h24v24H0z" fill="none"/><path d="M10 4H4c-1.1 0-1.99.9-1.99 2L2 18c0 1.1.9 2 2 2h16c1.1 0 2-.9 2-2V8c0-1.1-.9-2-2-2h-8l-2-2z"/></symbol><symbol id="help" viewBox="0 0 24 24"><path d="M0 0h24v24H0V0z" fill="none"/><path d="M12 2C6.48 2 2 6.48 2 12s4.48 10 10 10 10-4.48 10-10S17.52 2 12 2zm1 17h-2v-2h2v2zm2.07-7.75l-.9.92C13.45 12.9 13 13.5 13 15h-2v-.5c0-1.1.45-2.1 1.17-2.83l1.24-1.26c.37-.36.59-.86.59-1.41 0-1.1-.9-2-2-2s-2 .9-2 2H8c0-2.21 1.79-4 4-4s4 1.79 4 4c0 .88-.36 1.68-.93 2.25z"/></symbol><symbol id="history" viewBox="0 0 24 24"><path d="M0 0h24v24H0V0z" fill="none"/><path d="M13 3a9 9 0 00-9 9H1l3.89 3.89.07.14L9 12H6c0-3.87 3.13-7 7-7s7 3.13 7 7-3.13 7-7 7c-1.93 0-3.68-.79-4.94-2.06l-1.42 1.42A8.954 8.954 0 0013 21a9 9 0 000-18zm-1 5v5l4.25 2.52.77-1.28-3.52-2.09V8z"/></symbol><symbol id="home" viewBox="0 0 24 24"><path d="M0 0h24v24H0z" fill="none"/><path d="M10 20v-6h4v6h5v-8h3L12 3 2 12h3v8z"/></symbol><symbol id="info" viewBox="0 0 24 24"><path d="M0 0h24v24H0V0z" fill="none"/><path d="M11 7h2v2h-2zm0 4h2v6h-2zm1-9C6.48 2 2 6.48 2 12s4.48 10 10 10 10-4.48 10-10S17.52 2 12 2zm0 18c-4.41 0-8-3.59-8-8s3.59-8 8-8 8 3.59 8 8-3.59 8-8 8z"/></symbol><symbol id="launch" viewBox="0 0 24 24"><path d="M0 0h24v24H0z" fill="none"/><path d="M19 19H5V5h7V3H5a2 2 0 00-2 2v14a2 2 0 002 2h14c1.1 0 2-.9 2-2v-7h-2v7zM14 3v2h3.59l-9.83 9.83 1.41 1.41L19 6.41V10h2V3h-7z"/></symbol><symbol id="lens" viewBox="0 0 24 24"><path d="M0 0h24v24H0z" fill="none"/><path d="M12 2C6.48 2 2 6.48 2 12s4.48 10 10 10 10-4.48 10-10S17.52 2 12 2z"/></symbol><symbol id="lock" viewBox="0 0 24 24"><path d="M0 0h24v24H0z" fill="none"/><path d="M18 8h-1V6c0-2.76-2.24-5-5-5S7 3.24 7 6v2H6c-1.1 0-2 .9-2 2v10c0 1.1.9 2 2 2h12c1.1 0 2-.9 2-2V10c0-1.1-.9-2-2-2zm-6 9c-1.1 0-2-.9-2-2s.9-2 2-2 2 .9 2 2-.9 2-2 2zm3.1-9H8.9V6c0-1.71 1.39-3.1 3.1-3.1 1.71 0 3.1 1.39 3.1 3.1v2z"/></symbol><symbol id="menu" viewBox="0 0 16 16"><g clip-path="url(#clip0)"><path d="M16 5H0V4h16v1zm0 8H0v-1h16v1zm0-4.008H0V8h16v.992z"/></g></symbol><symbol id="more" viewBox="0 0 24 24"><path d="M6 12a1.5 1.5 0 11-3 0 1.5 1.5 0 013 0zM13.5 12a1.5 1.5 0 11-2.999 0 1.5 1.5 0 013 0zM21 12a1.5 1.5 0 11-2.999 0 1.5 1.5 0 013 0z"/></symbol><symbol id="more_horiz" viewBox="0 0 24 24"><path d="M0 0h24v24H0V0z" fill="none"/><path d="M6 10c-1.1 0-2 .9-2 2s.9 2 2 2 2-.9 2-2-.9-2-2-2zm12 0c-1.1 0-2 .9-2 2s.9 2 2 2 2-.9 2-2-.9-2-2-2zm-6 0c-1.1 0-2 .9-2 2s.9 2 2 2 2-.9 2-2-.9-2-2-2z"/></symbol><symbol id="more_vert" viewBox="0 0 24 24"><path d="M0 0h24v24H0z" fill="none"/><path d="M12 8c1.1 0 2-.9 2-2s-.9-2-2-2-2 .9-2 2 .9 2 2 2zm0 2c-1.1 0-2 .9-2 2s.9 2 2 2 2-.9 2-2-.9-2-2-2zm0 6c-1.1 0-2 .9-2 2s.9 2 2 2 2-.9 2-2-.9-2-2-2z"/></symbol><symbol id="new-file" viewBox="0 0 16 16"><path fill-rule="evenodd" clip-rule="evenodd" d="M9.5 1.1l3.4 3.5.1.4v2h-1V6H8V2H3v11h4v1H2.5l-.5-.5v-12l.5-.5h6.7l.3.1zM9 2v3h2.9L9 2zm4 14h-1v-3H9v-1h3V9h1v3h3v1h-3v3z"/></symbol><symbol id="new-folder" viewBox="0 0 16 16"><path fill-rule="evenodd" clip-rule="evenodd" d="M14.5 2H7.71l-.85-.85L6.51 1h-5l-.5.5v11l.5.5H7v-1H1.99V6h4.49l.35-.15.86-.86H14v1.5l-.001.51h1.011V2.5L14.5 2zm-.51 2h-6.5l-.35.15-.86.86H2v-3h4.29l.85.85.36.15H14l-.01.99zM13 16h-1v-3H9v-1h3V9h1v3h3v1h-3v3z"/></symbol><symbol id="note_add" viewBox="0 0 24 24"><path d="M0 0h24v24H0V0z" fill="none"/><path d="M13 11h-2v3H8v2h3v3h2v-3h3v-2h-3zm1-9H6c-1.1 0-2 .9-2 2v16c0 1.1.89 2 1.99 2H18c1.1 0 2-.9 2-2V8l-6-6zm4 18H6V4h7v5h5v11z"/></symbol><symbol id="note_add_filled" viewBox="0 0 24 24"><path d="M0 0h24v24H0z" fill="none"/><path d="M14 2H6c-1.1 0-1.99.9-1.99 2L4 20c0 1.1.89 2 1.99 2H18c1.1 0 2-.9 2-2V8l-6-6zm2 14h-3v3h-2v-3H8v-2h3v-3h2v3h3v2zm-3-7V3.5L18.5 9H13z"/></symbol><symbol id="person" viewBox="0 0 24 24"><path d="M0 0h24v24H0z" fill="none"/><path d="M12 12c2.21 0 4-1.79 4-4s-1.79-4-4-4-4 1.79-4 4 1.79 4 4 4zm0 2c-2.67 0-8 1.34-8 4v2h16v-2c0-2.66-5.33-4-8-4z"/></symbol><symbol id="play_arrow" viewBox="0 0 24 24"><path d="M0 0h24v24H0z" fill="none"/><path d="M8 5v14l11-7z"/></symbol><symbol id="security" viewBox="0 0 24 24"><path d="M0 0h24v24H0z" fill="none"/><path d="M12 1L3 5v6c0 5.55 3.84 10.74 9 12 5.16-1.26 9-6.45 9-12V5l-9-4zm0 10.99h7c-.53 4.12-3.28 7.79-7 8.94V12H5V6.3l7-3.11v8.8z"/></symbol></svg>